<svg width="1491" height="1992" viewBox="0 0 1491 1992" fill="none" xmlns="http://www.w3.org/2000/svg">
<path d="M1336.21 1070.18V1286.68H1238.21L1013.21 1288.18H940.207V1182.68H1019.71V1168.68L953.207 1168.18L1054.71 1038.68V986.183H1116.18L1209.71 1040.18V1168.68H1108.71V1182.68H1227.71V1070.18H1336.21Z" fill="#D4D4D8" stroke="black"/>
<path d="M902.707 1141.18H766.207L736.207 1186.68L637.207 1126.18L673.707 1062.68L507.707 962.683L538.207 912.683L701.707 802.183L1001.21 971.183L902.707 1141.18Z" fill="#D4D4D8"/>
<path d="M940.207 1182.68L909.707 1178.18H878.207H852.207L764.707 1176.68L765.707 1143.18L736.207 1187.18L638.207 1126.68L648.207 1105.68L591.707 1070.18L616.707 1028.18L507.707 964.183L110.207 1635.18C76.607 1678.38 75.8737 1735.52 79.207 1758.68L26.207 1790.68C37.807 1837.08 64.3737 1867.35 76.207 1876.68L130.707 1844.68C149.107 1866.68 187.707 1875.85 204.707 1877.68L601.707 1878.18L600.707 1605.68H551.207V1551.68L482.207 1506.18L500.207 1476.18L522.207 1489.18H653.707L772.171 1288.18H940.207V1216.68V1182.68Z" fill="#D4D4D8" stroke="black"/>
<path d="M1228.71 1189.68C1246.71 1189.68 1246.21 1161.68 1228.71 1161.68H1226.71V1180.68H1176.71V1189.68H1228.71Z" stroke="black" stroke-width="2"/>
<path d="M1177.21 1189.68V1286.68" stroke="black" stroke-width="2"/>
<path d="M1201.21 1189.68V1286.68" stroke="black" stroke-width="2"/>
<path d="M1225.71 1189.68V1287.18" stroke="black" stroke-width="2"/>
<path d="M1231.21 1190.18L1260.71 1287.18" stroke="black" stroke-width="2"/>
<path d="M1235.71 1189.18L1302.21 1287.18" stroke="black" stroke-width="2"/>
<path d="M1240.21 1185.18L1338.71 1265.68" stroke="black" stroke-width="2"/>
<path d="M1242.21 1180.68L1338.21 1213.18" stroke="black" stroke-width="2"/>
<path d="M1242.71 1176.68H1338.21" stroke="black" stroke-width="2"/>
<path d="M1242.71 1172.68L1338.71 1140.68" stroke="black" stroke-width="2"/>
<path d="M1241.21 1169.18L1338.21 1089.68" stroke="black" stroke-width="2"/>
<path d="M1236.71 1162.68L1300.71 1068.18" stroke="black" stroke-width="2"/>
<path d="M1231.21 1160.68L1260.71 1068.18" stroke="black" stroke-width="2"/>
<rect x="509.035" y="963.629" width="125.938" height="24.4921" transform="rotate(30.9105 509.035 963.629)" fill="#D9D9D9"/>
<rect x="509.035" y="963.629" width="125.938" height="24.4921" transform="rotate(30.9105 509.035 963.629)" stroke="black"/>
<rect x="509.035" y="963.629" width="125.938" height="24.4921" transform="rotate(30.9105 509.035 963.629)" stroke="black"/>
<rect x="509.035" y="963.629" width="125.938" height="24.4921" transform="rotate(30.9105 509.035 963.629)" stroke="black"/>
<rect x="495.941" y="985.5" width="125.938" height="24.4921" transform="rotate(30.9105 495.941 985.5)" fill="#D9D9D9"/>
<rect x="495.941" y="985.5" width="125.938" height="24.4921" transform="rotate(30.9105 495.941 985.5)" stroke="black"/>
<rect x="495.941" y="985.5" width="125.938" height="24.4921" transform="rotate(30.9105 495.941 985.5)" stroke="black"/>
<rect x="495.941" y="985.5" width="125.938" height="24.4921" transform="rotate(30.9105 495.941 985.5)" stroke="black"/>
<rect x="482.845" y="1007.37" width="125.938" height="24.4921" transform="rotate(30.9105 482.845 1007.37)" fill="#D9D9D9"/>
<rect x="482.845" y="1007.37" width="125.938" height="24.4921" transform="rotate(30.9105 482.845 1007.37)" stroke="black"/>
<rect x="482.845" y="1007.37" width="125.938" height="24.4921" transform="rotate(30.9105 482.845 1007.37)" stroke="black"/>
<rect x="482.845" y="1007.37" width="125.938" height="24.4921" transform="rotate(30.9105 482.845 1007.37)" stroke="black"/>
<rect x="469.75" y="1029.24" width="125.938" height="24.4921" transform="rotate(30.9105 469.75 1029.24)" fill="#D9D9D9"/>
<rect x="469.75" y="1029.24" width="125.938" height="24.4921" transform="rotate(30.9105 469.75 1029.24)" stroke="black"/>
<rect x="469.75" y="1029.24" width="125.938" height="24.4921" transform="rotate(30.9105 469.75 1029.24)" stroke="black"/>
<rect x="469.75" y="1029.24" width="125.938" height="24.4921" transform="rotate(30.9105 469.75 1029.24)" stroke="black"/>
<rect x="687.375" y="1040.03" width="118.81" height="24.4921" transform="rotate(30.9105 687.375 1040.03)" fill="#D9D9D9"/>
<rect x="687.375" y="1040.03" width="118.81" height="24.4921" transform="rotate(30.9105 687.375 1040.03)" stroke="black"/>
<rect x="687.375" y="1040.03" width="118.81" height="24.4921" transform="rotate(30.9105 687.375 1040.03)" stroke="black"/>
<rect x="687.375" y="1040.03" width="118.81" height="24.4921" transform="rotate(30.9105 687.375 1040.03)" stroke="black"/>
<rect x="674.281" y="1061.9" width="118.81" height="24.4921" transform="rotate(30.9105 674.281 1061.9)" fill="#D9D9D9"/>
<rect x="674.281" y="1061.9" width="118.81" height="24.4921" transform="rotate(30.9105 674.281 1061.9)" stroke="black"/>
<rect x="674.281" y="1061.9" width="118.81" height="24.4921" transform="rotate(30.9105 674.281 1061.9)" stroke="black"/>
<rect x="674.281" y="1061.9" width="118.81" height="24.4921" transform="rotate(30.9105 674.281 1061.9)" stroke="black"/>
<rect x="661.185" y="1083.77" width="118.81" height="24.4921" transform="rotate(30.9105 661.185 1083.77)" fill="#D9D9D9"/>
<rect x="661.185" y="1083.77" width="118.81" height="24.4921" transform="rotate(30.9105 661.185 1083.77)" stroke="black"/>
<rect x="661.185" y="1083.77" width="118.81" height="24.4921" transform="rotate(30.9105 661.185 1083.77)" stroke="black"/>
<rect x="661.185" y="1083.77" width="118.81" height="24.4921" transform="rotate(30.9105 661.185 1083.77)" stroke="black"/>
<rect x="648.09" y="1105.65" width="118.81" height="24.4921" transform="rotate(30.9105 648.09 1105.65)" fill="#D9D9D9"/>
<rect x="648.09" y="1105.65" width="118.81" height="24.4921" transform="rotate(30.9105 648.09 1105.65)" stroke="black"/>
<rect x="648.09" y="1105.65" width="118.81" height="24.4921" transform="rotate(30.9105 648.09 1105.65)" stroke="black"/>
<rect x="648.09" y="1105.65" width="118.81" height="24.4921" transform="rotate(30.9105 648.09 1105.65)" stroke="black"/>
<rect x="739.26" y="953.369" width="118.81" height="24.4921" transform="rotate(30.9105 739.26 953.369)" fill="#D9D9D9"/>
<rect x="739.26" y="953.369" width="118.81" height="24.4921" transform="rotate(30.9105 739.26 953.369)" stroke="black"/>
<rect x="739.26" y="953.369" width="118.81" height="24.4921" transform="rotate(30.9105 739.26 953.369)" stroke="black"/>
<rect x="739.26" y="953.369" width="118.81" height="24.4921" transform="rotate(30.9105 739.26 953.369)" stroke="black"/>
<rect x="726.165" y="975.241" width="118.81" height="24.4921" transform="rotate(30.9105 726.165 975.241)" fill="#D9D9D9"/>
<rect x="726.165" y="975.241" width="118.81" height="24.4921" transform="rotate(30.9105 726.165 975.241)" stroke="black"/>
<rect x="726.165" y="975.241" width="118.81" height="24.4921" transform="rotate(30.9105 726.165 975.241)" stroke="black"/>
<rect x="726.165" y="975.241" width="118.81" height="24.4921" transform="rotate(30.9105 726.165 975.241)" stroke="black"/>
<rect x="713.07" y="997.112" width="118.81" height="24.4921" transform="rotate(30.9105 713.07 997.112)" fill="#D9D9D9"/>
<rect x="713.07" y="997.112" width="118.81" height="24.4921" transform="rotate(30.9105 713.07 997.112)" stroke="black"/>
<rect x="713.07" y="997.112" width="118.81" height="24.4921" transform="rotate(30.9105 713.07 997.112)" stroke="black"/>
<rect x="713.07" y="997.112" width="118.81" height="24.4921" transform="rotate(30.9105 713.07 997.112)" stroke="black"/>
<rect x="699.975" y="1018.98" width="118.81" height="24.4921" transform="rotate(30.9105 699.975 1018.98)" fill="#D9D9D9"/>
<rect x="699.975" y="1018.98" width="118.81" height="24.4921" transform="rotate(30.9105 699.975 1018.98)" stroke="black"/>
<rect x="699.975" y="1018.98" width="118.81" height="24.4921" transform="rotate(30.9105 699.975 1018.98)" stroke="black"/>
<rect x="699.975" y="1018.98" width="118.81" height="24.4921" transform="rotate(30.9105 699.975 1018.98)" stroke="black"/>
<path d="M60.207 1601.68L72.707 1609.64L215.707 1366.68L203.936 1359.18L60.207 1601.68Z" fill="#D4D4D8"/>
<path d="M203.936 1359.18L215.707 1366.68L254.427 1389.68L308.808 1298.18L269.707 1275.15L257.871 1268.18L203.936 1359.18Z" fill="#3F3F46"/>
<path d="M257.871 1268.18L269.707 1275.15L414.707 1031.18L402.488 1024.18L257.871 1268.18Z" fill="#D4D4D8"/>
<path d="M508.207 962.683L537.207 913.183L490.207 876.183L402.488 1024.18L414.707 1031.18L453.231 1055.18L508.207 962.683Z" fill="#3F3F46"/>
<path fill-rule="evenodd" clip-rule="evenodd" d="M72.707 1609.64L215.707 1366.68L254.427 1389.68L109.707 1633.18L72.707 1609.64Z" fill="#9F9FA9"/>
<path d="M269.707 1275.15L308.808 1298.18L453.231 1055.18L414.707 1031.18L269.707 1275.15Z" fill="#71717B"/>
<path d="M72.707 1609.64L60.207 1601.68L203.936 1359.18M72.707 1609.64L109.707 1633.18L254.427 1389.68M72.707 1609.64L215.707 1366.68M215.707 1366.68L203.936 1359.18M215.707 1366.68L254.427 1389.68M203.936 1359.18L257.871 1268.18M254.427 1389.68L308.808 1298.18M308.808 1298.18L269.707 1275.15M308.808 1298.18L453.231 1055.18M257.871 1268.18L269.707 1275.15M257.871 1268.18L402.488 1024.18M269.707 1275.15L414.707 1031.18M414.707 1031.18L402.488 1024.18M414.707 1031.18L453.231 1055.18M402.488 1024.18L490.207 876.183L537.207 913.183L508.207 962.683L453.231 1055.18" stroke="black"/>
<path d="M616.707 1028.68L592.207 1070.18L648.207 1104.68L673.207 1062.68L616.707 1028.68Z" fill="#3F3F46" stroke="black" stroke-width="0.619027"/>
<path d="M1018.21 1181.68V1272.18C1048.87 1271.02 1110.21 1251.28 1110.21 1181.68" stroke="black" stroke-width="2"/>
<path d="M772.707 1216.68H783.207V1176.18H903.957V1216.68H939.707V1182.44L1018.71 1182.18V1168.18H952.207L1054.71 1038.18V985.183H1115.94L1210.21 1040.18V1105.43V1169.68H1109.21V1182.18H1226.21V1067.18H1338.71V1287.68H1238.21V1302.18H1371.71V1047.18H1337.71H1226.21V1033.18L1131.71 971.183H1002.21L902.207 1141.68H766.207V1176.18H772.707V1216.68Z" fill="#3F3F46" stroke="black" stroke-width="0.619027"/>
<path d="M1011.21 1289.18H771.707L656.707 1488.18L520.207 1487.18L500.207 1477.68L482.207 1507.68L551.707 1550.68V1604.68H600.707V1576.68H693.207V1520.68L799.707 1343.18L1011.21 1342.18V1289.18Z" fill="#3F3F46" stroke="black" stroke-width="0.619027"/>
<path fill-rule="evenodd" clip-rule="evenodd" d="M636.207 1939.68V1879.18H506.707V1926.68V1939.68H636.207Z" fill="#3F3F46"/>
<path d="M247.207 1939.68H506.707V1926.68H247.207V1939.68Z" fill="#D4D4D8"/>
<path d="M506.707 1926.68V1879.18H247.207V1926.68H506.707Z" fill="#9F9FA9"/>
<path d="M506.707 1939.68H636.207V1879.18H506.707M506.707 1939.68H247.207V1926.68M506.707 1939.68V1926.68M506.707 1879.18V1926.68M506.707 1879.18H247.207V1926.68M247.207 1926.68H506.707" stroke="black" stroke-width="2"/>
<path d="M208.707 1939.18H246.707V1877.68H205.707C173.707 1877.68 135.207 1853.68 130.707 1845.18L76.707 1877.68C120.707 1926.88 183.04 1939.18 208.707 1939.18Z" fill="#3F3F46" stroke="black" stroke-width="2"/>
<path d="M30.707 1789.68L1.20703 1879.18C12.707 1885.68 42.807 1893.58 71.207 1873.18" stroke="black" stroke-width="2"/>
<path d="M80.7074 1758.68L25.7074 1790.68C3.70744 1703.48 39.8741 1630.02 60.7074 1604.18L110.707 1635.18C74.207 1684.68 76.707 1742.68 80.7074 1758.68Z" fill="#3F3F46" stroke="black" stroke-width="2"/>
<path d="M1053.43 1119.68V1102.23H1056.59V1109.62H1064.68V1102.23H1067.85V1119.68H1064.68V1112.27H1056.59V1119.68H1053.43ZM1074.96 1119.68L1070.04 1102.23H1073.44L1076.58 1115.06H1076.74L1080.1 1102.23H1083.19L1086.56 1115.06H1086.71L1089.86 1102.23H1093.26L1088.33 1119.68H1085.21L1081.72 1107.44H1081.58L1078.08 1119.68H1074.96ZM1109.45 1108.12H1106.27C1106.18 1107.6 1106.01 1107.13 1105.76 1106.73C1105.52 1106.32 1105.22 1105.97 1104.85 1105.69C1104.49 1105.4 1104.07 1105.19 1103.61 1105.05C1103.15 1104.9 1102.65 1104.83 1102.12 1104.83C1101.17 1104.83 1100.33 1105.07 1099.59 1105.54C1098.86 1106.02 1098.29 1106.71 1097.87 1107.62C1097.46 1108.53 1097.25 1109.64 1097.25 1110.96C1097.25 1112.29 1097.46 1113.42 1097.87 1114.33C1098.29 1115.24 1098.87 1115.93 1099.59 1116.39C1100.33 1116.85 1101.17 1117.08 1102.11 1117.08C1102.63 1117.08 1103.12 1117.02 1103.57 1116.88C1104.03 1116.74 1104.45 1116.53 1104.81 1116.26C1105.18 1115.98 1105.49 1115.65 1105.74 1115.25C1105.99 1114.85 1106.17 1114.4 1106.27 1113.89L1109.45 1113.9C1109.34 1114.73 1109.08 1115.51 1108.68 1116.24C1108.29 1116.97 1107.77 1117.61 1107.14 1118.17C1106.5 1118.72 1105.76 1119.15 1104.9 1119.46C1104.05 1119.77 1103.11 1119.92 1102.07 1119.92C1100.53 1119.92 1099.16 1119.57 1097.96 1118.86C1096.75 1118.15 1095.8 1117.12 1095.11 1115.78C1094.42 1114.44 1094.07 1112.83 1094.07 1110.96C1094.07 1109.08 1094.42 1107.47 1095.12 1106.13C1095.82 1104.79 1096.77 1103.77 1097.97 1103.06C1099.18 1102.35 1100.54 1101.99 1102.07 1101.99C1103.04 1101.99 1103.94 1102.13 1104.78 1102.4C1105.61 1102.67 1106.36 1103.07 1107.01 1103.6C1107.66 1104.12 1108.2 1104.77 1108.62 1105.53C1109.05 1106.28 1109.32 1107.15 1109.45 1108.12Z" fill="black"/>
<rect x="1085.71" y="986.683" width="29" height="17" stroke="black" stroke-width="2"/>
<path d="M1086.21 1004.18C1085.04 1019.35 1086.11 1049.68 1099.71 1049.68" stroke="black" stroke-width="2"/>
<path d="M1113.21 1004.18C1114.37 1019.35 1113.31 1049.68 1099.71 1049.68" stroke="black" stroke-width="2"/>
<rect x="1157.71" y="1078.68" width="53" height="54" stroke="black" stroke-width="2"/>
<rect x="1162.21" y="1084.18" width="30" height="43" stroke="black"/>
<g filter="url(#filter0_i_71_3056)">
<path d="M134.395 1777.68L166.645 1687.5H180.207V1703.56H175.52L151.27 1777.68H134.395ZM150.707 1754.37L155.02 1741.93H196.332L200.645 1754.37H150.707ZM200.082 1777.68L175.832 1703.56V1687.5H184.77L216.957 1777.68H200.082ZM132.652 1802C131.355 1802 130.223 1801.8 129.254 1801.41C128.285 1801.02 127.52 1800.46 126.957 1799.74C126.402 1799.01 126.09 1798.15 126.02 1797.15L126.008 1796.96H128.902L128.926 1797.1C129.004 1797.59 129.211 1798 129.547 1798.36C129.883 1798.71 130.324 1798.98 130.871 1799.18C131.418 1799.36 132.047 1799.46 132.758 1799.46C133.461 1799.46 134.07 1799.36 134.586 1799.16C135.109 1798.96 135.512 1798.68 135.793 1798.32C136.082 1797.95 136.227 1797.53 136.227 1797.04V1797.03C136.227 1796.41 135.988 1795.91 135.512 1795.53C135.043 1795.16 134.262 1794.86 133.168 1794.63L131.352 1794.25C129.68 1793.9 128.434 1793.33 127.613 1792.54C126.793 1791.75 126.383 1790.73 126.383 1789.47V1789.46C126.391 1788.46 126.66 1787.59 127.191 1786.85C127.73 1786.1 128.473 1785.51 129.418 1785.09C130.363 1784.67 131.441 1784.46 132.652 1784.46C133.887 1784.46 134.961 1784.66 135.875 1785.07C136.797 1785.47 137.52 1786.04 138.043 1786.77C138.574 1787.49 138.867 1788.33 138.922 1789.28L138.934 1789.47H136.051L136.027 1789.33C135.957 1788.85 135.773 1788.43 135.477 1788.09C135.188 1787.74 134.801 1787.47 134.316 1787.28C133.832 1787.09 133.27 1787 132.629 1787C131.98 1787 131.414 1787.1 130.93 1787.29C130.453 1787.48 130.082 1787.75 129.816 1788.09C129.551 1788.43 129.418 1788.84 129.418 1789.3V1789.31C129.418 1789.9 129.656 1790.39 130.133 1790.76C130.609 1791.13 131.359 1791.42 132.383 1791.64L134.211 1792.02C135.383 1792.26 136.34 1792.59 137.082 1793C137.824 1793.41 138.371 1793.93 138.723 1794.56C139.082 1795.18 139.262 1795.92 139.262 1796.8V1796.81C139.262 1797.86 138.996 1798.78 138.465 1799.56C137.934 1800.34 137.176 1800.95 136.191 1801.37C135.207 1801.79 134.027 1802 132.652 1802ZM141.734 1801.68V1784.77H152.668V1787.32H144.746V1791.89H152.234V1794.31H144.746V1799.14H152.668V1801.68H141.734ZM162.805 1802C161.195 1802 159.797 1801.64 158.609 1800.93C157.43 1800.22 156.516 1799.21 155.867 1797.9C155.227 1796.59 154.906 1795.03 154.906 1793.22V1793.21C154.906 1791.41 155.227 1789.85 155.867 1788.55C156.516 1787.23 157.43 1786.23 158.609 1785.52C159.797 1784.81 161.195 1784.46 162.805 1784.46C164.102 1784.46 165.262 1784.71 166.285 1785.21C167.316 1785.71 168.156 1786.4 168.805 1787.28C169.453 1788.16 169.852 1789.18 170 1790.33L170.012 1790.45H167.047L166.988 1790.25C166.832 1789.6 166.562 1789.04 166.18 1788.57C165.805 1788.09 165.332 1787.73 164.762 1787.47C164.191 1787.2 163.539 1787.07 162.805 1787.07C161.828 1787.07 160.977 1787.32 160.25 1787.82C159.531 1788.32 158.973 1789.03 158.574 1789.95C158.184 1790.87 157.988 1791.95 157.988 1793.21V1793.22C157.988 1794.48 158.184 1795.57 158.574 1796.49C158.973 1797.41 159.535 1798.13 160.262 1798.64C160.988 1799.14 161.84 1799.39 162.816 1799.39C163.535 1799.39 164.176 1799.26 164.738 1799.01C165.309 1798.75 165.789 1798.39 166.18 1797.91C166.57 1797.43 166.852 1796.84 167.023 1796.16L167.047 1796.06H170.012L170 1796.18C169.859 1797.32 169.465 1798.34 168.816 1799.21C168.168 1800.09 167.328 1800.77 166.297 1801.26C165.273 1801.75 164.109 1802 162.805 1802ZM176.035 1801.68V1787.32H170.949V1784.77H184.133V1787.32H179.047V1801.68H176.035ZM186.406 1801.68V1784.77H189.418V1801.68H186.406ZM200.035 1802C198.387 1802 196.961 1801.64 195.758 1800.93C194.562 1800.21 193.637 1799.2 192.98 1797.9C192.332 1796.59 192.008 1795.03 192.008 1793.23V1793.21C192.008 1791.41 192.336 1789.86 192.992 1788.56C193.648 1787.25 194.574 1786.23 195.77 1785.52C196.973 1784.81 198.395 1784.46 200.035 1784.46C201.676 1784.46 203.094 1784.82 204.289 1785.53C205.492 1786.25 206.418 1787.25 207.066 1788.56C207.723 1789.86 208.051 1791.41 208.051 1793.21V1793.23C208.051 1795.03 207.723 1796.59 207.066 1797.9C206.418 1799.2 205.496 1800.21 204.301 1800.93C203.105 1801.64 201.684 1802 200.035 1802ZM200.035 1799.39C201.051 1799.39 201.926 1799.13 202.66 1798.62C203.402 1798.12 203.973 1797.41 204.371 1796.49C204.77 1795.57 204.969 1794.48 204.969 1793.23V1793.21C204.969 1791.95 204.766 1790.87 204.359 1789.95C203.961 1789.03 203.391 1788.32 202.648 1787.82C201.914 1787.32 201.043 1787.07 200.035 1787.07C199.027 1787.07 198.152 1787.32 197.41 1787.82C196.668 1788.32 196.094 1789.03 195.688 1789.94C195.289 1790.86 195.09 1791.95 195.09 1793.21V1793.23C195.09 1794.48 195.289 1795.57 195.688 1796.49C196.094 1797.41 196.664 1798.13 197.398 1798.64C198.141 1799.14 199.02 1799.39 200.035 1799.39ZM210.664 1801.68V1784.77H213.359L223.098 1798.72L220.379 1796.6H221.703V1784.77H224.691V1801.68H222.008L212.258 1787.69L214.965 1789.82H213.641V1801.68H210.664Z" fill="#D4D4D8"/>
</g>
<path d="M1013.21 1344.18V1288.18H1238.71V1343.68H1277.21V1452.18H1337.21V1878.18H744.207V1937.18H637.207V1877.68H600.707V1579.18H693.707V1520.18L799.707 1344.18H1013.21Z" fill="#D4D4D8" stroke="black"/>
<path fill-rule="evenodd" clip-rule="evenodd" d="M744.207 1878.68V1924.68H893.207V1878.68H744.207Z" fill="#9F9FA9"/>
<path d="M893.207 1924.68H744.207V1938.68H893.207V1924.68Z" fill="#E4E4E7"/>
<path d="M893.207 1878.68V1924.68V1938.68H1029.21V1925.68V1878.68H893.207Z" fill="#3F3F46"/>
<path d="M1029.21 1938.68H1289.71V1925.68H1029.21V1938.68Z" fill="#E4E4E7"/>
<path d="M1029.21 1878.68V1925.68H1289.71V1878.68H1029.21Z" fill="#9F9FA9"/>
<path d="M1289.71 1925.68V1938.68H1370.71V1288.18H1238.71V1342.68H1278.21V1451.18H1337.71V1878.68H1289.71V1925.68Z" fill="#3F3F46"/>
<path d="M744.207 1924.68V1878.68H893.207M744.207 1924.68H893.207M744.207 1924.68V1938.68M893.207 1924.68V1878.68M893.207 1924.68V1938.68M893.207 1878.68H1029.21M744.207 1939.18V1938.68M893.207 1938.68H744.207M893.207 1938.68H1029.21M1029.21 1938.68H1289.71M1029.21 1938.68V1925.68M1029.21 1878.68V1925.68M1029.21 1878.68H1289.71M1289.71 1938.68V1925.68M1289.71 1938.68H1370.71V1288.18H1238.71V1342.68H1278.21V1451.18H1337.71V1878.68H1289.71M1289.71 1925.68H1029.21M1289.71 1925.68V1878.68" stroke="black" stroke-width="2"/>
<path d="M1011.21 1289.18H771.707L656.707 1488.18L520.207 1487.18L500.207 1477.68L482.207 1507.68L551.707 1550.68V1604.68H600.707V1576.68H693.207V1520.68L799.707 1343.18L1011.21 1342.18V1289.18Z" fill="#3F3F46" stroke="black" stroke-width="0.619027"/>
<path d="M642.207 1940.68L727.207 1990.68C733.707 1984.35 745.807 1965.48 742.207 1940.68" stroke="black" stroke-width="2"/>
<g filter="url(#filter1_i_71_3056)">
<path d="M649.582 1762.68V1750.18H675.645C681.561 1750.18 686.061 1749 689.145 1746.62C692.27 1744.25 693.832 1740.79 693.832 1736.25V1736.12C693.832 1733.08 693.103 1730.54 691.645 1728.5C690.228 1726.41 688.103 1724.87 685.27 1723.87C682.436 1722.83 678.915 1722.31 674.707 1722.31H649.582V1710.62H672.145C677.978 1710.62 682.415 1709.48 685.457 1707.18C688.499 1704.89 690.02 1701.6 690.02 1697.31V1697.18C690.02 1693.31 688.686 1690.31 686.02 1688.18C683.395 1686.06 679.686 1685 674.895 1685H649.582V1672.5H678.957C684.457 1672.5 689.207 1673.43 693.207 1675.31C697.249 1677.14 700.374 1679.75 702.582 1683.12C704.832 1686.5 705.957 1690.48 705.957 1695.06V1695.18C705.957 1698.43 705.207 1701.48 703.707 1704.31C702.249 1707.1 700.228 1709.45 697.645 1711.37C695.061 1713.25 692.165 1714.41 688.957 1714.87V1715.18C693.165 1715.56 696.874 1716.73 700.082 1718.68C703.29 1720.64 705.79 1723.2 707.582 1726.37C709.374 1729.5 710.27 1733.06 710.27 1737.06V1737.18C710.27 1742.43 709.02 1746.98 706.52 1750.81C704.02 1754.6 700.457 1757.54 695.832 1759.62C691.249 1761.66 685.749 1762.68 679.332 1762.68H649.582ZM641.52 1762.68V1672.5H657.645V1762.68H641.52ZM630.652 1787C629.355 1787 628.223 1786.8 627.254 1786.41C626.285 1786.02 625.52 1785.46 624.957 1784.74C624.402 1784.01 624.09 1783.15 624.02 1782.15L624.008 1781.96H626.902L626.926 1782.1C627.004 1782.59 627.211 1783 627.547 1783.36C627.883 1783.71 628.324 1783.98 628.871 1784.18C629.418 1784.36 630.047 1784.46 630.758 1784.46C631.461 1784.46 632.07 1784.36 632.586 1784.16C633.109 1783.96 633.512 1783.68 633.793 1783.32C634.082 1782.95 634.227 1782.53 634.227 1782.04V1782.03C634.227 1781.41 633.988 1780.91 633.512 1780.53C633.043 1780.16 632.262 1779.86 631.168 1779.63L629.352 1779.25C627.68 1778.9 626.434 1778.33 625.613 1777.54C624.793 1776.75 624.383 1775.73 624.383 1774.47V1774.46C624.391 1773.46 624.66 1772.59 625.191 1771.85C625.73 1771.1 626.473 1770.51 627.418 1770.09C628.363 1769.67 629.441 1769.46 630.652 1769.46C631.887 1769.46 632.961 1769.66 633.875 1770.07C634.797 1770.47 635.52 1771.04 636.043 1771.77C636.574 1772.49 636.867 1773.33 636.922 1774.28L636.934 1774.47H634.051L634.027 1774.33C633.957 1773.85 633.773 1773.43 633.477 1773.09C633.188 1772.74 632.801 1772.47 632.316 1772.28C631.832 1772.09 631.27 1772 630.629 1772C629.98 1772 629.414 1772.1 628.93 1772.29C628.453 1772.48 628.082 1772.75 627.816 1773.09C627.551 1773.43 627.418 1773.84 627.418 1774.3V1774.31C627.418 1774.9 627.656 1775.39 628.133 1775.76C628.609 1776.13 629.359 1776.42 630.383 1776.64L632.211 1777.02C633.383 1777.26 634.34 1777.59 635.082 1778C635.824 1778.41 636.371 1778.93 636.723 1779.56C637.082 1780.18 637.262 1780.92 637.262 1781.8V1781.81C637.262 1782.86 636.996 1783.78 636.465 1784.56C635.934 1785.34 635.176 1785.95 634.191 1786.37C633.207 1786.79 632.027 1787 630.652 1787ZM639.734 1786.68V1769.77H650.668V1772.32H642.746V1776.89H650.234V1779.31H642.746V1784.14H650.668V1786.68H639.734ZM660.805 1787C659.195 1787 657.797 1786.64 656.609 1785.93C655.43 1785.22 654.516 1784.21 653.867 1782.9C653.227 1781.59 652.906 1780.03 652.906 1778.22V1778.21C652.906 1776.41 653.227 1774.85 653.867 1773.55C654.516 1772.23 655.43 1771.23 656.609 1770.52C657.797 1769.81 659.195 1769.46 660.805 1769.46C662.102 1769.46 663.262 1769.71 664.285 1770.21C665.316 1770.71 666.156 1771.4 666.805 1772.28C667.453 1773.16 667.852 1774.18 668 1775.33L668.012 1775.45H665.047L664.988 1775.25C664.832 1774.6 664.562 1774.04 664.18 1773.57C663.805 1773.09 663.332 1772.73 662.762 1772.47C662.191 1772.2 661.539 1772.07 660.805 1772.07C659.828 1772.07 658.977 1772.32 658.25 1772.82C657.531 1773.32 656.973 1774.03 656.574 1774.95C656.184 1775.87 655.988 1776.95 655.988 1778.21V1778.22C655.988 1779.48 656.184 1780.57 656.574 1781.49C656.973 1782.41 657.535 1783.13 658.262 1783.64C658.988 1784.14 659.84 1784.39 660.816 1784.39C661.535 1784.39 662.176 1784.26 662.738 1784.01C663.309 1783.75 663.789 1783.39 664.18 1782.91C664.57 1782.43 664.852 1781.84 665.023 1781.16L665.047 1781.06H668.012L668 1781.18C667.859 1782.32 667.465 1783.34 666.816 1784.21C666.168 1785.09 665.328 1785.77 664.297 1786.26C663.273 1786.75 662.109 1787 660.805 1787ZM674.035 1786.68V1772.32H668.949V1769.77H682.133V1772.32H677.047V1786.68H674.035ZM684.406 1786.68V1769.77H687.418V1786.68H684.406ZM698.035 1787C696.387 1787 694.961 1786.64 693.758 1785.93C692.562 1785.21 691.637 1784.2 690.98 1782.9C690.332 1781.59 690.008 1780.03 690.008 1778.23V1778.21C690.008 1776.41 690.336 1774.86 690.992 1773.56C691.648 1772.25 692.574 1771.23 693.77 1770.52C694.973 1769.81 696.395 1769.46 698.035 1769.46C699.676 1769.46 701.094 1769.82 702.289 1770.53C703.492 1771.25 704.418 1772.25 705.066 1773.56C705.723 1774.86 706.051 1776.41 706.051 1778.21V1778.23C706.051 1780.03 705.723 1781.59 705.066 1782.9C704.418 1784.2 703.496 1785.21 702.301 1785.93C701.105 1786.64 699.684 1787 698.035 1787ZM698.035 1784.39C699.051 1784.39 699.926 1784.13 700.66 1783.62C701.402 1783.12 701.973 1782.41 702.371 1781.49C702.77 1780.57 702.969 1779.48 702.969 1778.23V1778.21C702.969 1776.95 702.766 1775.87 702.359 1774.95C701.961 1774.03 701.391 1773.32 700.648 1772.82C699.914 1772.32 699.043 1772.07 698.035 1772.07C697.027 1772.07 696.152 1772.32 695.41 1772.82C694.668 1773.32 694.094 1774.03 693.688 1774.94C693.289 1775.86 693.09 1776.95 693.09 1778.21V1778.23C693.09 1779.48 693.289 1780.57 693.688 1781.49C694.094 1782.41 694.664 1783.13 695.398 1783.64C696.141 1784.14 697.02 1784.39 698.035 1784.39ZM708.664 1786.68V1769.77H711.359L721.098 1783.72L718.379 1781.6H719.703V1769.77H722.691V1786.68H720.008L710.258 1772.69L712.965 1774.82H711.641V1786.68H708.664Z" fill="#D4D4D8"/>
</g>
<path d="M902.207 1141.18H766.207L841.707 1014.18L739.207 952.183L673.707 1062.68L508.207 962.183L1031.71 77.1833L1303.21 239.683L1309.71 228.183L1371.71 265.183L1365.21 276.683L1398.21 296.183L902.207 1141.18Z" fill="#D9D9D9"/>
<path d="M1365.21 276.683L1398.21 296.183L902.207 1141.18H766.207L841.707 1014.18L739.207 952.183L673.707 1062.68L508.207 962.183L1031.71 77.1833L1303.21 239.683M1365.21 276.683L1371.71 265.183L1309.71 228.183L1303.21 239.683M1365.21 276.683L1303.21 239.683" stroke="black"/>
<path d="M616.707 1028.68L592.207 1070.18L648.207 1104.68L673.207 1062.68L616.707 1028.68Z" fill="#3F3F46" stroke="black" stroke-width="0.619027"/>
<path d="M953.707 1168.68L903.707 1177.18H784.707H765.707V1140.68H903.707L1398.21 295.683L1366.21 276.683L1372.71 265.183L1404.21 282.183L1424.21 253.183L1471.21 282.183L1489.71 286.683V332.683L1464.21 323.183L1325.71 556.183L1329.71 559.683L1320.21 574.183L1314.71 570.183L1054.21 983.183V1037.68L953.707 1168.68Z" fill="#3F3F46" stroke="black"/>
<path d="M1415.71 403.683L1351.71 376.183L1396.21 301.183L1451.21 342.683L1415.71 403.683Z" fill="#71717B" stroke="black" stroke-opacity="0.7"/>
<path d="M1437.71 334.183L1451.21 342.683L1414.71 404.183L1402.71 397.683L1437.71 334.183Z" fill="#D4D4D8" stroke="black" stroke-opacity="0.7"/>
<path d="M1031.21 77.1833L508.207 961.683L456.207 930.683L1006.21 0.68335L1289.21 166.683V198.683L1283.21 211.683L1309.21 226.683L1302.71 238.683L1031.21 77.1833Z" fill="#3F3F46" stroke="black" stroke-opacity="0.7"/>
<path d="M611.707 785.183L537.207 912.683L490.207 874.683L557.207 761.183L611.707 785.183Z" fill="#71717B" stroke="black"/>
<path d="M571.207 767.683L501.207 883.683L490.207 873.683L557.707 761.183L571.207 767.683Z" fill="#D4D4D8" stroke="black"/>
<path opacity="0.5" d="M725.207 593.683L650.707 721.183L603.707 683.183L670.707 569.683L725.207 593.683Z" fill="#71717B" stroke="black"/>
<path d="M684.707 576.183L614.707 692.183L603.707 682.183L671.207 569.683L684.707 576.183Z" fill="#D4D4D8" stroke="black"/>
<path d="M854.207 375.683L778.707 503.183L731.707 465.183L798.707 351.683L854.207 375.683Z" fill="#71717B" stroke="black"/>
<path d="M812.707 358.183L742.707 474.183L731.707 464.183L799.207 351.683L812.707 358.183Z" fill="#D4D4D8" stroke="black"/>
<path d="M1008.21 115.183L902.207 293.683L853.707 255.183L952.207 93.6833L1008.21 115.183Z" fill="#71717B" stroke="black"/>
<path d="M964.707 99.1833L864.707 264.183L853.707 254.183L951.707 94.6833L964.707 99.1833Z" fill="#D4D4D8" stroke="black"/>
<path d="M1372.21 264.183L1310.71 227.683C1370.31 163.683 1419.54 210.683 1436.71 242.183L1372.21 264.183Z" stroke="black" stroke-width="2"/>
<g filter="url(#filter2_i_71_3056)">
<path d="M653.895 911.246C645.27 911.246 637.77 909.35 631.395 905.558C625.061 901.767 620.165 896.392 616.707 889.433C613.29 882.433 611.582 874.142 611.582 864.558V864.496C611.582 854.913 613.311 846.642 616.77 839.683C620.228 832.725 625.124 827.371 631.457 823.621C637.79 819.829 645.27 817.933 653.895 817.933C660.811 817.933 666.999 819.267 672.457 821.933C677.957 824.6 682.436 828.288 685.895 832.996C689.353 837.704 691.478 843.121 692.27 849.246L692.332 849.871H676.52L676.207 848.683C675.332 845.225 673.895 842.246 671.895 839.746C669.895 837.246 667.374 835.308 664.332 833.933C661.29 832.558 657.811 831.871 653.895 831.871C648.645 831.871 644.082 833.204 640.207 835.871C636.332 838.538 633.332 842.308 631.207 847.183C629.082 852.017 628.02 857.788 628.02 864.496V864.558C628.02 871.225 629.082 877.017 631.207 881.933C633.332 886.808 636.332 890.6 640.207 893.308C644.124 895.975 648.686 897.308 653.895 897.308C657.728 897.308 661.145 896.642 664.145 895.308C667.186 893.933 669.749 891.954 671.832 889.371C673.915 886.788 675.436 883.642 676.395 879.933L676.582 879.308H692.395L692.27 879.996C691.52 886.121 689.415 891.538 685.957 896.246C682.499 900.954 678.02 904.642 672.52 907.308C667.02 909.933 660.811 911.246 653.895 911.246ZM608.652 934C607.355 934 606.223 933.804 605.254 933.414C604.285 933.023 603.52 932.465 602.957 931.738C602.402 931.011 602.09 930.148 602.02 929.148L602.008 928.961H604.902L604.926 929.101C605.004 929.586 605.211 930.004 605.547 930.355C605.883 930.707 606.324 930.98 606.871 931.176C607.418 931.363 608.047 931.457 608.758 931.457C609.461 931.457 610.07 931.359 610.586 931.164C611.109 930.961 611.512 930.679 611.793 930.32C612.082 929.953 612.227 929.527 612.227 929.043V929.031C612.227 928.406 611.988 927.906 611.512 927.531C611.043 927.156 610.262 926.855 609.168 926.629L607.352 926.254C605.68 925.902 604.434 925.332 603.613 924.543C602.793 923.754 602.383 922.73 602.383 921.472V921.461C602.391 920.461 602.66 919.59 603.191 918.847C603.73 918.097 604.473 917.511 605.418 917.09C606.363 916.668 607.441 916.457 608.652 916.457C609.887 916.457 610.961 916.66 611.875 917.066C612.797 917.472 613.52 918.039 614.043 918.765C614.574 919.492 614.867 920.332 614.922 921.285L614.934 921.472H612.051L612.027 921.332C611.957 920.847 611.773 920.433 611.477 920.09C611.188 919.738 610.801 919.469 610.316 919.281C609.832 919.094 609.27 919 608.629 919C607.98 919 607.414 919.097 606.93 919.293C606.453 919.48 606.082 919.746 605.816 920.09C605.551 920.433 605.418 920.836 605.418 921.297V921.308C605.418 921.902 605.656 922.386 606.133 922.761C606.609 923.129 607.359 923.422 608.383 923.64L610.211 924.015C611.383 924.258 612.34 924.586 613.082 925C613.824 925.414 614.371 925.933 614.723 926.558C615.082 927.176 615.262 927.922 615.262 928.797V928.808C615.262 929.863 614.996 930.781 614.465 931.562C613.934 932.344 613.176 932.945 612.191 933.367C611.207 933.789 610.027 934 608.652 934ZM617.734 933.683V916.773H628.668V919.316H620.746V923.886H628.234V926.312H620.746V931.14H628.668V933.683H617.734ZM638.805 934C637.195 934 635.797 933.644 634.609 932.933C633.43 932.222 632.516 931.211 631.867 929.898C631.227 928.586 630.906 927.027 630.906 925.222V925.211C630.906 923.406 631.227 921.851 631.867 920.547C632.516 919.234 633.43 918.226 634.609 917.523C635.797 916.812 637.195 916.457 638.805 916.457C640.102 916.457 641.262 916.707 642.285 917.207C643.316 917.707 644.156 918.398 644.805 919.281C645.453 920.164 645.852 921.179 646 922.328L646.012 922.445H643.047L642.988 922.246C642.832 921.597 642.562 921.039 642.18 920.57C641.805 920.094 641.332 919.726 640.762 919.469C640.191 919.203 639.539 919.07 638.805 919.07C637.828 919.07 636.977 919.32 636.25 919.82C635.531 920.32 634.973 921.031 634.574 921.953C634.184 922.867 633.988 923.953 633.988 925.211V925.222C633.988 926.48 634.184 927.57 634.574 928.492C634.973 929.414 635.535 930.129 636.262 930.636C636.988 931.136 637.84 931.386 638.816 931.386C639.535 931.386 640.176 931.261 640.738 931.011C641.309 930.754 641.789 930.386 642.18 929.91C642.57 929.426 642.852 928.844 643.023 928.164L643.047 928.058H646.012L646 928.176C645.859 929.324 645.465 930.336 644.816 931.211C644.168 932.086 643.328 932.769 642.297 933.261C641.273 933.754 640.109 934 638.805 934ZM652.035 933.683V919.316H646.949V916.773H660.133V919.316H655.047V933.683H652.035ZM662.406 933.683V916.773H665.418V933.683H662.406ZM676.035 934C674.387 934 672.961 933.644 671.758 932.933C670.562 932.215 669.637 931.203 668.98 929.898C668.332 928.586 668.008 927.031 668.008 925.234V925.211C668.008 923.414 668.336 921.863 668.992 920.558C669.648 919.246 670.574 918.234 671.77 917.523C672.973 916.812 674.395 916.457 676.035 916.457C677.676 916.457 679.094 916.816 680.289 917.535C681.492 918.246 682.418 919.254 683.066 920.558C683.723 921.863 684.051 923.414 684.051 925.211V925.234C684.051 927.031 683.723 928.586 683.066 929.898C682.418 931.203 681.496 932.215 680.301 932.933C679.105 933.644 677.684 934 676.035 934ZM676.035 931.386C677.051 931.386 677.926 931.133 678.66 930.625C679.402 930.117 679.973 929.406 680.371 928.492C680.77 927.57 680.969 926.484 680.969 925.234V925.211C680.969 923.953 680.766 922.867 680.359 921.953C679.961 921.031 679.391 920.32 678.648 919.82C677.914 919.32 677.043 919.07 676.035 919.07C675.027 919.07 674.152 919.32 673.41 919.82C672.668 920.32 672.094 921.027 671.688 921.941C671.289 922.855 671.09 923.945 671.09 925.211V925.234C671.09 926.484 671.289 927.57 671.688 928.492C672.094 929.414 672.664 930.129 673.398 930.636C674.141 931.136 675.02 931.386 676.035 931.386ZM686.664 933.683V916.773H689.359L699.098 930.719L696.379 928.597H697.703V916.773H700.691V933.683H698.008L688.258 919.691L690.965 921.824H689.641V933.683H686.664Z" fill="#D9D9D9"/>
</g>
<rect x="249.207" y="1648.18" width="99" height="99" fill="#9F9FA9" stroke="black"/>
<path d="M281.679 1772.96V1781.68H280.622V1774.06H280.571L278.44 1775.48V1774.4L280.622 1772.96H281.679ZM287.035 1781.8C286.393 1781.8 285.846 1781.63 285.395 1781.28C284.943 1780.93 284.598 1780.42 284.359 1779.75C284.12 1779.08 284.001 1778.27 284.001 1777.32C284.001 1776.38 284.12 1775.57 284.359 1774.9C284.6 1774.23 284.947 1773.72 285.399 1773.37C285.853 1773.01 286.399 1772.84 287.035 1772.84C287.672 1772.84 288.216 1773.01 288.667 1773.37C289.122 1773.72 289.468 1774.23 289.707 1774.9C289.949 1775.57 290.069 1776.38 290.069 1777.32C290.069 1778.27 289.95 1779.08 289.711 1779.75C289.473 1780.42 289.127 1780.93 288.676 1781.28C288.224 1781.63 287.677 1781.8 287.035 1781.8ZM287.035 1780.87C287.672 1780.87 288.166 1780.56 288.518 1779.94C288.87 1779.33 289.047 1778.46 289.047 1777.32C289.047 1776.56 288.966 1775.92 288.804 1775.39C288.645 1774.86 288.414 1774.45 288.113 1774.17C287.815 1773.9 287.456 1773.76 287.035 1773.76C286.404 1773.76 285.912 1774.07 285.556 1774.69C285.201 1775.31 285.024 1776.19 285.024 1777.32C285.024 1778.08 285.103 1778.72 285.262 1779.25C285.422 1779.77 285.65 1780.18 285.949 1780.45C286.25 1780.73 286.612 1780.87 287.035 1780.87ZM294.535 1781.8C293.893 1781.8 293.346 1781.63 292.895 1781.28C292.443 1780.93 292.098 1780.42 291.859 1779.75C291.62 1779.08 291.501 1778.27 291.501 1777.32C291.501 1776.38 291.62 1775.57 291.859 1774.9C292.1 1774.23 292.447 1773.72 292.899 1773.37C293.353 1773.01 293.899 1772.84 294.535 1772.84C295.172 1772.84 295.716 1773.01 296.167 1773.37C296.622 1773.72 296.968 1774.23 297.207 1774.9C297.449 1775.57 297.569 1776.38 297.569 1777.32C297.569 1778.27 297.45 1779.08 297.211 1779.75C296.973 1780.42 296.627 1780.93 296.176 1781.28C295.724 1781.63 295.177 1781.8 294.535 1781.8ZM294.535 1780.87C295.172 1780.87 295.666 1780.56 296.018 1779.94C296.37 1779.33 296.547 1778.46 296.547 1777.32C296.547 1776.56 296.466 1775.92 296.304 1775.39C296.145 1774.86 295.914 1774.45 295.613 1774.17C295.315 1773.9 294.956 1773.76 294.535 1773.76C293.904 1773.76 293.412 1774.07 293.056 1774.69C292.701 1775.31 292.524 1776.19 292.524 1777.32C292.524 1778.08 292.603 1778.72 292.762 1779.25C292.922 1779.77 293.15 1780.18 293.449 1780.45C293.75 1780.73 294.112 1780.87 294.535 1780.87ZM305.24 1781.82C304.626 1781.82 304.098 1781.67 303.654 1781.39C303.211 1781.1 302.87 1780.7 302.632 1780.19C302.393 1779.68 302.274 1779.1 302.274 1778.44C302.274 1777.78 302.396 1777.19 302.64 1776.68C302.887 1776.17 303.231 1775.77 303.672 1775.49C304.115 1775.2 304.632 1775.05 305.223 1775.05C305.683 1775.05 306.098 1775.14 306.467 1775.31C306.836 1775.48 307.139 1775.72 307.375 1776.02C307.61 1776.33 307.757 1776.69 307.814 1777.1H306.808C306.731 1776.8 306.561 1776.54 306.297 1776.31C306.035 1776.07 305.683 1775.96 305.24 1775.96C304.848 1775.96 304.504 1776.06 304.208 1776.26C303.916 1776.46 303.687 1776.75 303.522 1777.12C303.36 1777.49 303.279 1777.92 303.279 1778.41C303.279 1778.92 303.359 1779.36 303.518 1779.73C303.68 1780.11 303.907 1780.4 304.2 1780.61C304.495 1780.81 304.842 1780.92 305.24 1780.92C305.501 1780.92 305.738 1780.87 305.951 1780.78C306.164 1780.69 306.345 1780.56 306.493 1780.39C306.64 1780.22 306.745 1780.01 306.808 1779.77H307.814C307.757 1780.16 307.616 1780.51 307.392 1780.82C307.17 1781.13 306.876 1781.37 306.51 1781.55C306.146 1781.73 305.723 1781.82 305.24 1781.82ZM309.284 1781.68V1775.14H310.255V1776.16H310.341C310.477 1775.81 310.697 1775.54 311.001 1775.35C311.305 1775.15 311.67 1775.05 312.096 1775.05C312.528 1775.05 312.887 1775.15 313.174 1775.35C313.464 1775.54 313.69 1775.81 313.852 1776.16H313.92C314.088 1775.82 314.339 1775.55 314.674 1775.36C315.01 1775.15 315.412 1775.05 315.88 1775.05C316.466 1775.05 316.944 1775.24 317.316 1775.6C317.689 1775.97 317.875 1776.53 317.875 1777.3V1781.68H316.869V1777.3C316.869 1776.82 316.737 1776.47 316.473 1776.27C316.208 1776.06 315.897 1775.96 315.539 1775.96C315.079 1775.96 314.723 1776.1 314.47 1776.37C314.217 1776.65 314.091 1777 314.091 1777.42V1781.68H313.068V1777.2C313.068 1776.83 312.947 1776.53 312.706 1776.3C312.464 1776.07 312.153 1775.96 311.772 1775.96C311.511 1775.96 311.267 1776.03 311.039 1776.16C310.815 1776.3 310.633 1776.5 310.494 1776.74C310.358 1776.99 310.289 1777.27 310.289 1777.59V1781.68H309.284Z" fill="black"/>
<line x1="348.207" y1="1761.68" x2="348.207" y2="1747.68" stroke="black"/>
<path d="M348.707 1762.18L343.707 1759.3V1765.07L348.707 1762.18ZM248.707 1762.18L253.707 1765.07V1759.3L248.707 1762.18ZM344.207 1762.18V1761.68H253.207V1762.18V1762.68H344.207V1762.18Z" fill="black"/>
<line x1="249.207" y1="1747.68" x2="249.207" y2="1761.68" stroke="black"/>
<path d="M223.434 1680.65H214.707V1679.6H222.326V1679.55L220.912 1677.42H221.985L223.434 1679.6V1680.65ZM214.588 1686.01C214.588 1685.37 214.762 1684.82 215.112 1684.37C215.464 1683.92 215.974 1683.57 216.642 1683.34C217.312 1683.1 218.122 1682.98 219.071 1682.98C220.014 1682.98 220.819 1683.1 221.487 1683.34C222.157 1683.58 222.669 1683.92 223.021 1684.38C223.376 1684.83 223.554 1685.38 223.554 1686.01C223.554 1686.65 223.376 1687.19 223.021 1687.64C222.669 1688.1 222.157 1688.44 221.487 1688.68C220.819 1688.92 220.014 1689.05 219.071 1689.05C218.122 1689.05 217.312 1688.93 216.642 1688.69C215.974 1688.45 215.464 1688.1 215.112 1687.65C214.762 1687.2 214.588 1686.65 214.588 1686.01ZM215.525 1686.01C215.525 1686.65 215.832 1687.14 216.446 1687.49C217.059 1687.85 217.934 1688.02 219.071 1688.02C219.826 1688.02 220.47 1687.94 221.001 1687.78C221.532 1687.62 221.937 1687.39 222.216 1687.09C222.494 1686.79 222.633 1686.43 222.633 1686.01C222.633 1685.38 222.322 1684.89 221.7 1684.53C221.081 1684.18 220.204 1684 219.071 1684C218.315 1684 217.673 1684.08 217.145 1684.24C216.616 1684.4 216.214 1684.63 215.939 1684.92C215.663 1685.23 215.525 1685.59 215.525 1686.01ZM214.588 1693.51C214.588 1692.87 214.762 1692.32 215.112 1691.87C215.464 1691.42 215.974 1691.07 216.642 1690.84C217.312 1690.6 218.122 1690.48 219.071 1690.48C220.014 1690.48 220.819 1690.6 221.487 1690.84C222.157 1691.08 222.669 1691.42 223.021 1691.88C223.376 1692.33 223.554 1692.88 223.554 1693.51C223.554 1694.15 223.376 1694.69 223.021 1695.14C222.669 1695.6 222.157 1695.94 221.487 1696.18C220.819 1696.42 220.014 1696.55 219.071 1696.55C218.122 1696.55 217.312 1696.43 216.642 1696.19C215.974 1695.95 215.464 1695.6 215.112 1695.15C214.762 1694.7 214.588 1694.15 214.588 1693.51ZM215.525 1693.51C215.525 1694.15 215.832 1694.64 216.446 1694.99C217.059 1695.35 217.934 1695.52 219.071 1695.52C219.826 1695.52 220.47 1695.44 221.001 1695.28C221.532 1695.12 221.937 1694.89 222.216 1694.59C222.494 1694.29 222.633 1693.93 222.633 1693.51C222.633 1692.88 222.322 1692.39 221.7 1692.03C221.081 1691.68 220.204 1691.5 219.071 1691.5C218.315 1691.5 217.673 1691.58 217.145 1691.74C216.616 1691.9 216.214 1692.13 215.939 1692.42C215.663 1692.73 215.525 1693.09 215.525 1693.51ZM214.571 1704.22C214.571 1703.6 214.716 1703.07 215.005 1702.63C215.295 1702.19 215.694 1701.85 216.203 1701.61C216.711 1701.37 217.292 1701.25 217.946 1701.25C218.61 1701.25 219.197 1701.37 219.706 1701.62C220.217 1701.86 220.616 1702.21 220.903 1702.65C221.193 1703.09 221.338 1703.61 221.338 1704.2C221.338 1704.66 221.252 1705.07 221.082 1705.44C220.912 1705.81 220.673 1706.12 220.366 1706.35C220.059 1706.59 219.701 1706.73 219.292 1706.79V1705.78C219.591 1705.71 219.855 1705.54 220.085 1705.27C220.318 1705.01 220.434 1704.66 220.434 1704.22C220.434 1703.82 220.332 1703.48 220.127 1703.18C219.926 1702.89 219.64 1702.66 219.271 1702.5C218.904 1702.34 218.474 1702.26 217.98 1702.26C217.474 1702.26 217.034 1702.34 216.659 1702.49C216.284 1702.66 215.993 1702.88 215.785 1703.18C215.578 1703.47 215.474 1703.82 215.474 1704.22C215.474 1704.48 215.52 1704.71 215.61 1704.93C215.701 1705.14 215.832 1705.32 216.002 1705.47C216.173 1705.62 216.377 1705.72 216.616 1705.78V1706.79C216.23 1706.73 215.882 1706.59 215.572 1706.37C215.265 1706.15 215.021 1705.85 214.839 1705.49C214.66 1705.12 214.571 1704.7 214.571 1704.22ZM214.707 1708.26H221.252V1709.23H220.23V1709.32C220.579 1709.45 220.85 1709.67 221.044 1709.98C221.24 1710.28 221.338 1710.65 221.338 1711.07C221.338 1711.5 221.24 1711.86 221.044 1712.15C220.85 1712.44 220.579 1712.67 220.23 1712.83V1712.9C220.568 1713.06 220.836 1713.32 221.035 1713.65C221.237 1713.99 221.338 1714.39 221.338 1714.86C221.338 1715.44 221.154 1715.92 220.788 1716.29C220.424 1716.66 219.858 1716.85 219.088 1716.85H214.707V1715.85H219.088C219.571 1715.85 219.916 1715.71 220.123 1715.45C220.331 1715.18 220.434 1714.87 220.434 1714.52C220.434 1714.06 220.295 1713.7 220.017 1713.45C219.741 1713.19 219.392 1713.07 218.968 1713.07H214.707V1712.04H219.19C219.562 1712.04 219.862 1711.92 220.089 1711.68C220.319 1711.44 220.434 1711.13 220.434 1710.75C220.434 1710.49 220.365 1710.24 220.225 1710.02C220.086 1709.79 219.893 1709.61 219.646 1709.47C219.402 1709.33 219.119 1709.27 218.798 1709.27H214.707V1708.26Z" fill="black"/>
<line x1="234.707" y1="1747.18" x2="248.707" y2="1747.18" stroke="black"/>
<path d="M234.207 1747.68L237.094 1742.68H231.32L234.207 1747.68ZM234.207 1647.68L231.32 1652.68H237.094L234.207 1647.68ZM234.207 1743.18H234.707V1652.18H234.207H233.707V1743.18H234.207Z" fill="black"/>
<line x1="248.707" y1="1648.18" x2="234.707" y2="1648.18" stroke="black"/>
<defs>
<filter id="filter0_i_71_3056" x="126.008" y="1687.5" width="99.6836" height="115.504" filterUnits="userSpaceOnUse" color-interpolation-filters="sRGB">
<feFlood flood-opacity="0" result="BackgroundImageFix"/>
<feBlend mode="normal" in="SourceGraphic" in2="BackgroundImageFix" result="shape"/>
<feColorMatrix in="SourceAlpha" type="matrix" values="0 0 0 0 0 0 0 0 0 0 0 0 0 0 0 0 0 0 127 0" result="hardAlpha"/>
<feOffset dx="1" dy="1"/>
<feGaussianBlur stdDeviation="2.5"/>
<feComposite in2="hardAlpha" operator="arithmetic" k2="-1" k3="1"/>
<feColorMatrix type="matrix" values="0 0 0 0 0 0 0 0 0 0 0 0 0 0 0 0 0 0 0.25 0"/>
<feBlend mode="normal" in2="shape" result="effect1_innerShadow_71_3056"/>
</filter>
<filter id="filter1_i_71_3056" x="624.008" y="1672.5" width="99.6836" height="115.504" filterUnits="userSpaceOnUse" color-interpolation-filters="sRGB">
<feFlood flood-opacity="0" result="BackgroundImageFix"/>
<feBlend mode="normal" in="SourceGraphic" in2="BackgroundImageFix" result="shape"/>
<feColorMatrix in="SourceAlpha" type="matrix" values="0 0 0 0 0 0 0 0 0 0 0 0 0 0 0 0 0 0 127 0" result="hardAlpha"/>
<feOffset dx="1" dy="1"/>
<feGaussianBlur stdDeviation="2.5"/>
<feComposite in2="hardAlpha" operator="arithmetic" k2="-1" k3="1"/>
<feColorMatrix type="matrix" values="0 0 0 0 0 0 0 0 0 0 0 0 0 0 0 0 0 0 0.25 0"/>
<feBlend mode="normal" in2="shape" result="effect1_innerShadow_71_3056"/>
</filter>
<filter id="filter2_i_71_3056" x="602.008" y="817.933" width="99.6836" height="117.066" filterUnits="userSpaceOnUse" color-interpolation-filters="sRGB">
<feFlood flood-opacity="0" result="BackgroundImageFix"/>
<feBlend mode="normal" in="SourceGraphic" in2="BackgroundImageFix" result="shape"/>
<feColorMatrix in="SourceAlpha" type="matrix" values="0 0 0 0 0 0 0 0 0 0 0 0 0 0 0 0 0 0 127 0" result="hardAlpha"/>
<feOffset dx="1" dy="1"/>
<feGaussianBlur stdDeviation="2.5"/>
<feComposite in2="hardAlpha" operator="arithmetic" k2="-1" k3="1"/>
<feColorMatrix type="matrix" values="0 0 0 0 0 0 0 0 0 0 0 0 0 0 0 0 0 0 0.25 0"/>
<feBlend mode="normal" in2="shape" result="effect1_innerShadow_71_3056"/>
</filter>
</defs>
</svg>
